<!-- Generated by IcoMoon.io -->
<svg version="1.1" xmlns="http://www.w3.org/2000/svg" width="640" height="640" viewBox="0 0 640 640">
<title></title>
<g id="icomoon-ignore">
</g>
<path fill="#000" d="M288 320h32v32h-32v-32z"></path>
<path fill="#000" d="M352 320h32v32h-32v-32z"></path>
<path fill="#000" d="M416 320h32v32h-32v-32z"></path>
<path fill="#000" d="M480 320h32v32h-32v-32z"></path>
<path fill="#000" d="M288 416h32v32h-32v-32z"></path>
<path fill="#000" d="M352 416h32v32h-32v-32z"></path>
<path fill="#000" d="M416 416h32v32h-32v-32z"></path>
<path fill="#000" d="M480 416h32v32h-32v-32z"></path>
<path fill="#000" d="M288 512h32v32h-32v-32z"></path>
<path fill="#000" d="M352 512h32v32h-32v-32z"></path>
<path fill="#000" d="M416 512h32v32h-32v-32z"></path>
<path fill="#000" d="M480 512h32v32h-32v-32z"></path>
<path fill="#000" d="M560 224h-16v-80c0-4.244-1.686-8.313-4.687-11.313l-59.313-59.314v-57.373c0-8.836-7.163-16-16-16s-16 7.164-16 16v57.373l-59.313 59.313c-3.001 3-4.687 7.070-4.687 11.313v16h-64v-79.999c0-8.836-7.164-16-16-16h-256c-8.836 0-16 7.164-16 16v544c0 8.837 7.164 16 16 16h512c8.837 0 16-7.163 16-16v-384c0-8.836-7.163-16-16-16zM416 150.627l48-48 48 48v73.373h-32v-48c0-8.836-7.163-16-16-16h-48v-9.373zM448 192v32h-128v-32h128zM224 240v368h-160v-512h224v128h-48c-8.836 0-16 7.164-16 16zM544 608h-288v-352h288v352z"></path>
<path fill="#000" d="M224 128h32v64h-32v-64z"></path>
<path fill="#000" d="M160 128h32v64h-32v-64z"></path>
<path fill="#000" d="M96 128h32v64h-32v-64z"></path>
<path fill="#000" d="M96 224h32v64h-32v-64z"></path>
<path fill="#000" d="M160 224h32v64h-32v-64z"></path>
<path fill="#000" d="M96 320h32v64h-32v-64z"></path>
<path fill="#000" d="M160 320h32v64h-32v-64z"></path>
<path fill="#000" d="M96 416h32v64h-32v-64z"></path>
<path fill="#000" d="M160 416h32v64h-32v-64z"></path>
<path fill="#000" d="M96 512h32v64h-32v-64z"></path>
<path fill="#000" d="M160 512h32v64h-32v-64z"></path>
</svg>
