<!-- Generated by IcoMoon.io -->
<svg version="1.1" xmlns="http://www.w3.org/2000/svg" width="640" height="640" viewBox="0 0 640 640">
<title></title>
<g id="icomoon-ignore">
</g>
<path fill="#000" d="M304 352c-97.047 0-176-78.953-176-176s78.953-176 176-176 176 78.953 176 176-78.953 176-176 176zM304 32c-79.402 0-144 64.598-144 144s64.598 144 144 144c79.401 0 144-64.598 144-144s-64.599-144-144-144z"></path>
<path fill="#000" d="M560 640h-512c-26.467 0-48-21.532-48-48 0-2.178 0.445-53.928 39.2-105.6 22.559-30.079 53.446-53.975 91.802-71.021 46.848-20.821 105.053-31.379 172.998-31.379 67.944 0 126.149 10.558 172.998 31.379 38.356 17.047 69.243 40.942 91.802 71.021 38.755 51.672 39.2 103.422 39.2 105.6 0 26.468-21.532 48-48 48zM304 416c-111.575 0-193.917 30.493-238.125 88.183-33.132 43.234-33.872 87.44-33.875 87.881 0 8.758 7.178 15.936 16 15.936h512c8.822 0 16-7.178 16-16-0.004-0.377-0.743-44.583-33.874-87.817-44.209-57.69-126.552-88.183-238.126-88.183z"></path>
</svg>
